<?xml version="1.0" encoding="UTF-8"?>
<svg width="122px" height="89px" viewBox="0 0 122 89" version="1.1" xmlns="http://www.w3.org/2000/svg" xmlns:xlink="http://www.w3.org/1999/xlink">
    <!-- Generator: Sketch 39.1 (31720) - http://www.bohemiancoding.com/sketch -->
    <title>Group 2</title>
    <desc>Created with Sketch.</desc>
    <defs>
        <linearGradient x1="23.845761%" y1="-96.2850917%" x2="62.4494889%" y2="120.331003%" id="linearGradient-1">
            <stop stop-color="#FFB3B3" offset="0%"></stop>
            <stop stop-color="#FB2E3D" offset="100%"></stop>
        </linearGradient>
        <path d="M50.5,32 L101,32 C101,32 86.583758,32.5637213 71.5929998,33 L24.1108404,33 C11.6402083,32.5637213 0,32 0,32 L50.5,32 L0,32 L0,88 L108,88 L108,32 L50.5,32 Z" id="path-2"></path>
        <filter x="-50%" y="-50%" width="200%" height="200%" filterUnits="objectBoundingBox" id="filter-3">
            <feOffset dx="0" dy="-5" in="SourceAlpha" result="shadowOffsetOuter1"></feOffset>
            <feGaussianBlur stdDeviation="3.5" in="shadowOffsetOuter1" result="shadowBlurOuter1"></feGaussianBlur>
            <feColorMatrix values="0 0 0 0 0   0 0 0 0 0   0 0 0 0 0  0 0 0 0.0818048007 0" type="matrix" in="shadowBlurOuter1"></feColorMatrix>
        </filter>
    </defs>
    <g id="Page-5" stroke="none" stroke-width="1" fill="none" fill-rule="evenodd">
        <g id="Group-2" transform="translate(7.000000, -1.000000)">
            <g id="Group" transform="translate(11.000000, 0.000000)">
                <rect id="Rectangle-3" fill="url(#linearGradient-1)" transform="translate(42.000000, 28.000000) rotate(-10.000000) translate(-42.000000, -28.000000) " x="4" y="7" width="76" height="42" rx="3"></rect>
                <text id="APA" transform="translate(41.333948, 24.102016) rotate(-10.000000) translate(-41.333948, -24.102016) " font-family="HelveticaNeue, Helvetica Neue" font-size="24" font-weight="normal" fill="#FFFFFF">
                    <tspan x="18.8339479" y="33.1020163">APA</tspan>
                </text>
            </g>
            <g id="Combined-Shape">
                <use fill="black" fill-opacity="1" filter="url(#filter-3)" xlink:href="#path-2"></use>
                <use fill="#FFFFFF" fill-rule="evenodd" xlink:href="#path-2"></use>
            </g>
        </g>
    </g>
</svg>