<svg xmlns="http://www.w3.org/2000/svg" viewBox="0 0 488.74 420.18"><defs><style>.cls-1{fill:#00aeef;}.cls-1,.cls-2,.cls-3{fill-rule:evenodd;}.cls-2{fill:#8ed8f8;}.cls-3{fill:#bdddf4;}</style></defs><title>Clearlytic Logo Placeholder</title><g id="Layer_1" data-name="Layer 1"><path class="cls-1" d="M238.28,365.83,131.22,319V257.47l107.06,46.82v61.54ZM118,177.9,57.43,204.39l180.84,79.09v-53Z"/><path class="cls-1" d="M238.28,365.83,345.33,319V257.47L238.28,304.29v61.54ZM358.56,177.9l60.56,26.48L238.28,283.47v-53Z"/><path class="cls-1" d="M92.45,267.72a8.45,8.45,0,0,1-.19,15.58l1.27,7.57L98,317.26H80.19l4.45-26.39,1.27-7.57a8.45,8.45,0,0,1-.19-15.58V237.64h6.73Z"/><path class="cls-1" d="M341,50.76s-5.49,102.31-100.7,171.44l-22.8-9.8s91.62-54.48,102.33-172.09L341,50.76Z"/><path class="cls-2" d="M303.61,62.29s.8,76.74-94.42,145.87l-22.8-9.8s75.13-49.79,96.05-146.52l21.17,10.45Z"/><path class="cls-2" d="M266,70.33s-9.67,63.49-88.48,124.2l-22.8-9.8s76.35-55,90.1-124.85L266,70.33Z"/><path class="cls-3" d="M226.18,80.31s.43,36.87-78.3,101.31l-22.8-9.8s60.27-48.1,79.93-102l21.17,10.45Z"/></g></svg>