<?xml version="1.0" encoding="UTF-8"?>
<svg width="551px" height="211px" viewBox="0 0 551 211" version="1.1" xmlns="http://www.w3.org/2000/svg" xmlns:xlink="http://www.w3.org/1999/xlink">
    <!-- Generator: Sketch 39.1 (31720) - http://www.bohemiancoding.com/sketch -->
    <title>Group</title>
    <desc>Created with Sketch.</desc>
    <defs></defs>
    <g id="Page-2" stroke="none" stroke-width="1" fill="none" fill-rule="evenodd">
        <g id="Group" transform="translate(275.000000, 105.500000) rotate(90.000000) translate(-275.000000, -105.500000) translate(169.500000, -170.500000)" fill="#FF626D">
            <path d="M90.8613542,261.851081 C92.1584628,209.723291 93.2669711,157.587697 94.4486101,105.452104 C94.5178918,102.32311 92.0198993,100.992702 89.7066582,101.359442 C88.7020726,99.642787 87.693638,97.926132 86.6890524,96.209477 C84.3257744,92.1753377 78.559992,94.0948701 78.3059589,98.5113553 C78.0788687,102.467465 77.8902683,106.431377 77.678574,110.391388 C76.8625888,109.209237 75.5231413,108.460151 73.5216681,108.678635 C64.5111897,109.654007 66.8475248,130.101709 66.7436022,134.561111 C65.7351676,178.589411 65.8621841,222.664529 65.6812818,266.704533 C65.323326,354.796246 65.1770645,442.891861 65.0000111,530.987476 C64.9884641,536.92164 74.0104895,536.92164 74.0951672,530.987476 C74.3799922,510.972839 74.7879848,490.958202 75.2691082,470.943565 C75.2922021,471.708257 75.319145,472.469047 75.342239,473.229837 C75.4153697,497.692172 76.1736201,522.134998 78.0942646,546.554416 C78.556143,552.426157 87.4934907,552.574413 87.2356086,546.554416 C85.9731408,517.262039 85.045535,487.993071 84.3873582,458.731905 C84.7222201,393.822838 89.2640247,328.851347 90.1531407,263.985195 C90.5457373,263.376563 90.8421093,262.689901 90.8613542,261.851081" id="Fill-55"></path>
            <path d="M130.861354,261.851081 C132.158463,209.723291 133.266971,157.587697 134.44861,105.452104 C134.517892,102.32311 132.019899,100.992702 129.706658,101.359442 C128.702073,99.642787 127.693638,97.926132 126.689052,96.209477 C124.325774,92.1753377 118.559992,94.0948701 118.305959,98.5113553 C118.078869,102.467465 117.890268,106.431377 117.678574,110.391388 C116.862589,109.209237 115.523141,108.460151 113.521668,108.678635 C104.51119,109.654007 106.847525,130.101709 106.743602,134.561111 C105.735168,178.589411 105.862184,222.664529 105.681282,266.704533 C105.323326,354.796246 105.177064,442.891861 105.000011,530.987476 C104.988464,536.92164 114.010489,536.92164 114.095167,530.987476 C114.379992,510.972839 114.787985,490.958202 115.269108,470.943565 C115.292202,471.708257 115.319145,472.469047 115.342239,473.229837 C115.41537,497.692172 116.17362,522.134998 118.094265,546.554416 C118.556143,552.426157 127.493491,552.574413 127.235609,546.554416 C125.973141,517.262039 125.045535,487.993071 124.387358,458.731905 C124.72222,393.822838 129.264025,328.851347 130.153141,263.985195 C130.545737,263.376563 130.842109,262.689901 130.861354,261.851081" id="Fill-55-Copy"></path>
            <path d="M208.965597,145.931085 C208.095726,145.045447 207.225855,144.159809 206.352135,143.274171 C208.46138,141.56922 209.377439,138.225644 207.098839,135.385361 C203.831049,131.312206 200.52092,127.270264 197.199244,123.243928 C199.089097,121.523371 199.816555,118.503619 197.514861,116.002765 C180.767919,97.8062214 164.020977,79.6135796 147.274035,61.4209378 C145.095508,58.7289106 142.951622,56.0134745 140.800039,53.3019398 C127.667295,36.5762578 115.092655,19.3667911 102.575749,2.10660512 C99.0577754,-2.74294533 91.1288624,1.64232796 93.9848107,6.57771117 C93.2458052,7.68183247 92.5260446,8.79765824 91.7870391,9.90177954 C91.4521773,10.272421 91.1712012,10.6859788 90.9710539,11.13465 C73.7776293,36.9898156 57.4964146,63.3989926 42.3737449,90.4909301 C30.0916276,108.449483 18.4176503,126.747465 9.21857153,146.488997 C6.78601179,150.523137 4.36499901,154.565079 1.92859029,158.595317 C0.781592181,160.495342 1.08566215,162.317337 2.08254976,163.655548 C1.48980578,165.25906 0.854722933,166.835261 0.296619828,168.462182 C-1.62787364,174.099833 6.32798235,176.76455 9.32249418,172.316853 C10.1307814,171.119096 10.9390687,169.917437 11.7512049,168.715779 C13.5525308,171.462427 17.905735,172.398784 20.1843353,168.69237 C45.5106693,127.508255 70.8370033,86.3241402 96.1633373,45.1400255 C120.415804,69.8793653 144.622083,94.6694245 168.805268,119.47509 C179.416925,131.074216 190.363443,142.369025 201.744898,153.250277 C206.52149,157.818921 213.622871,150.667492 208.965597,145.931085" id="Fill-57"></path>
        </g>
    </g>
</svg>